{"title":"Behind The Candelabra - Dietro I Candelabri  (2013) [XviD - Ital","uid":11476220,"size":2156395104,"categoryP":"video","categoryS":"movies","magnet":"?xt=urn:btih:c15a39b406136ba1a648966704971db879b6e5e7&amp;dn=Behind+The+Candelabra+-+Dietro+I+Candelabri++%282013%29+%5BXviD+-+Ital&amp;tr=udp%3A%2F%2Ftracker.openbittorrent.com%3A80&amp;tr=udp%3A%2F%2Fopen.demonii.com%3A1337&amp;tr=udp%3A%2F%2Ftracker.coppersurfer.tk%3A6969&amp;tr=udp%3A%2F%2Fexodus.desync.com%3A6969","seeders":8,"leechers":0,"uploader":"robbyrs4","files":5,"time":1416153466,"description":"Behind The Candelabra - Dietro I Candelabri  (2013) [XviD - Italian English Ac3 5.1 - Ita Eng - Sub Ita Eng] MIRCrew\n\nDietro I Candelabri - Behind The Candelabra (2013) [XviD - Italian English Ac3 5.1 - Ita Eng - Sub Ita Eng] MIRCrew\n\n\n[center][color=red][b][img]http://s19.postimg.org/mqmhlwtlf/Mircrew_original_red_skull.png[/img]\n\n[u]NO FOUND ONLY ORIGINAL RELEASE[/u]\n\nDietro I Candelabri - Behind The Candelabra (2013)\n\n[img]http://s19.postimg.org/rb7m5fpzn/image.jpg[/img]\n\n\n[URL=http://www.imdb.com/title/tt1204975/][IMG]http://www.userlogos.org/files/logos/Sucka/imdb_new.png[/IMG][/URL]  \n\n[img]http://imageshack.us/a/img534/6946/zcu.gif[/img]\n\nPremi e riconoscimenti\n\n    2014 - Golden Globe\n        Miglior miniserie o film per la televisione\n        Miglior attore in una mini-serie o film per la televisione a Michael Douglas\n        Nomination per il Miglior attore in una mini-serie o film per la televisione a Matt Damon\n        Nomination per il Miglior attore non protagonista in una serie a Rob Lowe\n\n    2014 - Premio BAFTA\n\necc................\n\nTitolo originale \tBehind the Candelabra\nPaese \tStati Uniti d'America\nAnno \t2013\nFormato \tfilm TV\nGenere \tbiografico, drammatico\nDurata \t118 min.\nLingua originale \tinglese\nCaratteristiche tecniche\nAspect ratio \t1,78 : 1\nRegia \tSteven Soderbergh\nSoggetto \tScott Thorson e Alex Thorleifson (libro biografico)\nSceneggiatura \tRichard LaGravenese\n\n\n[img]http://imageshack.us/a/img4/8946/u96.gif[/img]\n\n\n    Michael Douglas: Liberace\n    Matt Damon: Scott Thorson\n    Rob Lowe: Dr. Jack Startz\n    Dan Aykroyd: Seymour Heller\n    Boyd Holbrook: Cary James\n    Max Napolitano: proprietario bar\n    Pat Asanti: George Liberace\n    Debbie Reynolds: Frances Liberace\n    Casey Kramer: Dora Liberace\n    Scott Bakula: Bob Black\n    Paul Reiser: Mr. Felder\n    Nicky Katt: Mr. Y\n    Cheyenne Jackson: Billy Leatherwood\n    Mike O'Malley: Tracy Schnelker\n    Eddie Jemison: assistente regista\n\n\n\n[img]http://imageshack.us/a/img844/6546/cupz.gif[/img]. \n\nI sei anni tormentati della relazione tra il pianista Liberace ed il suo giovanissimo amante Scott Thornson.......\n\n[img]http://imageshack.us/a/img202/6180/4e6.gif[/img]\n\nBased on the autobiographical novel, the tempestuous 6-year relationship between Liberace and his (much younger) lover, Scott Thorson, is recounted...............\n\n &lt;a href=&quot;\nhttp://s19.postimg.org/abynq6es3/vlcsnap_2014_11_16_15h37m48s247.png[/img]&quot; rel=&quot;nofollow&quot; target=&quot;_NEW&quot;&gt;\nhttp://s19.postimg.org/abynq6es3/vlcsnap_2014_11_16_15h37m48s247.png[/img]&lt;/a&gt;\n &lt;a href=&quot;\nhttp://s19.postimg.org/p974r6s0j/vlcsnap_2014_11_16_15h38m03s142.png[/img]&quot; rel=&quot;nofollow&quot; target=&quot;_NEW&quot;&gt;\nhttp://s19.postimg.org/p974r6s0j/vlcsnap_2014_11_16_15h38m03s142.png[/img]&lt;/a&gt;\n &lt;a href=&quot;\nhttp://s19.postimg.org/i7974zoer/vlcsnap_2014_11_16_15h38m16s15.png[/img]&quot; rel=&quot;nofollow&quot; target=&quot;_NEW&quot;&gt;\nhttp://s19.postimg.org/i7974zoer/vlcsnap_2014_11_16_15h38m16s15.png[/img]&lt;/a&gt;\n\n\n\n[img]http://imageshack.us/a/img571/2166/an4p.gif[/img]\n\n\n[spoiler]\nGeneral\nComplete name                            : Dietro I Candelabri - Behind The Candelabra (2013).ita.eng.sub.ita.eng.MIRCrewDietro I Candelabri - Behind The Candelabra (2013).ita.eng.sub.ita.eng.MIRCrew.avi\nFormat                                   : AVI\nFormat/Info                              : Audio Video Interleave\nFormat profile                           : OpenDML\nFile size                                : 2.01 GiB\nDuration                                 : 1h 59mn\nOverall bit rate                         : 2 413 Kbps\nWriting application                      : VirtualDubMod 1.5.10.2 (build 2540/release)\nWriting library                          : VirtualDubMod build 2540/release\n\nVideo\nID                                       : 0\nFormat                                   : MPEG-4 Visual\nFormat profile                           : Simple@L3\nFormat settings, BVOP                    : No\nFormat settings, QPel                    : No\nFormat settings, GMC                     : No warppoints\nFormat settings, Matrix                  : Default (H.263)\nCodec ID                                 : XVID\nCodec ID/Hint                            : XviD\nDuration                                 : 1h 59mn\nBit rate                                 : 1 498 Kbps\nWidth                                    : 720 pixels\nHeight                                   : 404 pixels\nDisplay aspect ratio                     : 16:9\nFrame rate                               : 24.000 fps\nColor space                              : YUV\nChroma subsampling                       : 4:2:0\nBit depth                                : 8 bits\nScan type                                : Progressive\nCompression mode                         : Lossy\nBits/(Pixel*Frame)                       : 0.215\nStream size                              : 1.25 GiB (62%)\nWriting library                          : XviD 64\n\nAudio #1\nID                                       : 1\nFormat                                   : AC-3\nFormat/Info                              : Audio Coding 3\nMode extension                           : CM (complete main)\nCodec ID                                 : 2000\nDuration                                 : 1h 59mn\nBit rate mode                            : Constant\nBit rate                                 : 448 Kbps\nChannel(s)                               : 6 channels\nChannel positions                        : Front: L C R, Side: L R, LFE\nSampling rate                            : 48.0 KHz\nBit depth                                : 16 bits\nCompression mode                         : Lossy\nStream size                              : 382 MiB (19%)\nAlignment                                : Split accross interleaves\nInterleave, duration                     : 42 ms (1.00 video frame)\nInterleave, preload duration             : 500 ms\n\nAudio #2\nID                                       : 2\nFormat                                   : AC-3\nFormat/Info                              : Audio Coding 3\nMode extension                           : CM (complete main)\nCodec ID                                 : 2000\nDuration                                 : 1h 59mn\nBit rate mode                            : Constant\nBit rate                                 : 448 Kbps\nChannel(s)                               : 6 channels\nChannel positions                        : Front: L C R, Side: L R, LFE\nSampling rate                            : 48.0 KHz\nBit depth                                : 16 bits\nCompression mode                         : Lossy\nStream size                              : 382 MiB (19%)\nAlignment                                : Split accross interleaves\nInterleave, duration                     : 42 ms (1.00 video frame)\nInterleave, preload duration             : 500 ms\n\n\n\n\n[/spoiler]\n\n[/color][/b][/center]","torrent":{"xt":"urn:btih:c15a39b406136ba1a648966704971db879b6e5e7","amp;dn":"Behind+The+Candelabra+-+Dietro+I+Candelabri++%282013%29+%5BXviD+-+Ital","amp;tr":["udp%3A%2F%2Ftracker.openbittorrent.com%3A80","udp%3A%2F%2Fopen.demonii.com%3A1337","udp%3A%2F%2Ftracker.coppersurfer.tk%3A6969","udp%3A%2F%2Fexodus.desync.com%3A6969"],"infoHash":"c15a39b406136ba1a648966704971db879b6e5e7","infoHashBuffer":{"type":"Buffer","data":[193,90,57,180,6,19,107,161,166,72,150,103,4,151,29,184,121,182,229,231]},"announce":[],"urlList":[]}}